<?xml version="1.0" standalone="no"?>
<!DOCTYPE svg PUBLIC "-//W3C//DTD SVG 20010904//EN"
 "http://www.w3.org/TR/2001/REC-SVG-20010904/DTD/svg10.dtd">
<svg version="1.0" xmlns="http://www.w3.org/2000/svg"
 width="1000.000000pt" height="1000.000000pt" viewBox="0 0 1000.000000 1000.000000"
 preserveAspectRatio="xMidYMid meet">
<metadata>
Created by potrace 1.14, written by Peter Selinger 2001-2017
</metadata>
<g transform="translate(0.000000,1000.000000) scale(0.100000,-0.100000)"
fill="#000000" stroke="none">
<path d="M4970 6758 c-14 -6 -29 -12 -35 -13 -5 -2 -44 -18 -85 -38 -41 -19
-102 -44 -135 -56 -33 -13 -64 -26 -70 -30 -5 -4 -39 -18 -75 -31 -36 -13 -70
-27 -76 -32 -6 -4 -59 -26 -118 -48 -58 -22 -114 -44 -124 -50 -9 -5 -55 -24
-102 -41 -47 -18 -87 -35 -90 -38 -3 -3 -12 -7 -20 -9 -14 -3 -183 -69 -272
-107 -21 -8 -41 -16 -45 -16 -5 -1 -17 -6 -28 -12 -11 -6 -23 -11 -27 -12 -3
0 -10 -3 -14 -7 -4 -5 -13 -8 -20 -8 -12 0 -117 -46 -201 -87 -47 -23 -41 -47
20 -78 34 -16 44 -50 42 -130 -2 -84 -20 -121 -66 -137 -37 -13 -50 -53 -23
-73 11 -8 35 -19 54 -26 19 -6 49 -17 65 -24 17 -7 41 -16 55 -20 42 -10 63
-31 55 -54 -3 -12 -15 -21 -25 -21 -32 0 -70 -22 -70 -40 0 -10 46 -85 103
-166 56 -82 133 -195 171 -252 38 -56 72 -105 77 -108 5 -3 5 -13 0 -23 -5 -9
-12 -44 -16 -76 -10 -99 -15 -113 -50 -139 l-34 -26 0 55 c0 89 -36 137 -117
155 -35 8 -48 5 -121 -31 -131 -65 -229 -183 -275 -334 -26 -84 -31 -227 -9
-268 13 -25 7 -72 -7 -51 -15 22 -45 23 -100 4 -67 -24 -118 -26 -139 -5 -22
23 -29 122 -10 165 8 19 44 67 79 106 97 110 177 282 175 376 -2 48 -7 61 -31
87 -68 71 -177 60 -262 -24 l-33 -33 6 63 c5 59 4 67 -21 100 -60 78 -139 28
-245 -151 -44 -75 -106 -154 -122 -154 -5 0 -9 7 -9 16 0 8 -12 40 -26 70 -24
50 -49 75 -83 80 -22 4 -69 -24 -86 -50 -27 -41 -46 -165 -50 -326 -2 -85 -7
-237 -11 -338 l-7 -182 28 -40 c29 -42 30 -42 83 -3 45 33 55 57 117 273 30
105 64 210 75 235 11 24 20 47 20 50 0 3 24 54 53 113 114 229 131 248 174
198 12 -13 29 -28 38 -33 16 -9 15 -16 -9 -89 -80 -236 -80 -526 -2 -645 53
-79 165 -98 268 -45 60 31 29 36 365 -64 40 -12 76 -22 80 -22 5 0 28 -8 53
-18 25 -10 47 -18 50 -18 3 0 25 -5 50 -12 25 -7 50 -13 55 -14 6 -1 15 -5 21
-8 6 -4 21 -9 35 -12 13 -2 38 -9 54 -16 17 -6 37 -13 45 -15 54 -12 180 -58
180 -65 0 -21 2 -26 18 -44 49 -54 221 -105 301 -89 50 10 52 9 211 -47 19 -7
39 -17 45 -21 5 -5 15 -9 23 -9 8 0 28 -6 45 -14 39 -16 204 -83 307 -124 41
-16 84 -33 95 -37 11 -4 26 -9 34 -11 7 -1 18 -7 24 -13 6 -6 17 -11 25 -11 7
0 39 -12 70 -26 90 -41 161 -72 182 -79 3 -1 13 -5 23 -10 13 -5 28 1 55 24
41 35 124 101 162 130 14 11 39 31 55 46 17 14 43 36 58 48 15 12 40 32 55 45
51 44 637 498 684 530 25 18 52 38 60 45 7 7 45 37 83 67 39 30 76 60 83 67
17 17 29 16 39 0 26 -43 93 -17 126 50 25 49 52 145 61 218 31 236 51 368 81
520 38 192 61 325 70 390 2 22 12 96 20 165 9 69 17 139 20 155 25 178 24 213
-5 237 -38 31 -118 13 -135 -30 -4 -9 -22 -71 -40 -137 -19 -66 -64 -225 -100
-354 -36 -129 -72 -246 -81 -259 l-16 -24 -41 40 c-53 52 -89 66 -132 52 -109
-36 -174 -230 -171 -507 1 -143 0 -151 -17 -141 -17 9 -18 20 -11 146 12 210
11 266 -5 295 -19 35 -56 59 -106 68 -35 6 -50 2 -128 -38 -94 -49 -142 -94
-204 -195 -20 -32 -42 -58 -49 -58 -8 0 -31 7 -51 15 -79 30 -140 40 -315 48
-51 3 -61 7 -94 39 -20 20 -67 52 -105 70 -46 22 -67 38 -64 46 3 8 5 24 5 37
0 19 7 24 48 30 26 5 52 9 57 10 6 1 33 5 60 9 81 11 117 16 170 26 28 6 84
15 125 20 88 13 126 19 160 25 14 2 59 9 100 15 119 18 116 16 135 62 22 56
25 69 31 153 6 74 -9 175 -32 212 -10 16 -21 20 -39 17 -14 -2 -25 0 -25 7 0
13 -25 39 -37 39 -5 0 -18 7 -28 15 -11 9 -51 37 -89 64 -39 26 -71 52 -73 58
-2 6 20 19 49 28 29 10 67 26 84 36 17 11 38 19 45 19 8 0 27 11 43 23 28 23
29 26 29 113 -1 108 -7 152 -31 224 -14 39 -24 55 -37 55 -10 0 -21 10 -26 22
-6 16 -28 28 -89 47 -45 14 -86 26 -92 26 -5 0 -24 6 -41 14 -18 7 -52 19 -77
26 -25 8 -130 41 -235 75 -104 35 -228 74 -275 89 -47 15 -92 30 -100 33 -8 3
-19 7 -25 9 -5 2 -35 10 -65 19 -81 24 -92 26 -120 13z m105 -78 c6 -4 22 -10
37 -14 15 -3 40 -11 55 -18 15 -6 31 -12 36 -13 4 -2 8 -3 10 -5 1 -1 9 -3 17
-5 21 -4 121 -35 145 -45 20 -8 166 -54 333 -106 50 -15 92 -31 92 -34 0 -9
-34 -27 -136 -70 -89 -38 -649 -285 -749 -330 -22 -10 -101 -44 -175 -75 -129
-55 -266 -115 -357 -156 -24 -11 -53 -24 -65 -29 -13 -6 -30 -15 -39 -21 -11
-9 -25 -6 -60 10 -24 12 -82 38 -129 58 -164 69 -335 145 -345 153 -5 4 -21
11 -35 15 -37 12 -148 64 -153 73 -3 4 1 13 9 20 8 7 14 10 14 7 0 -3 10 1 23
9 12 8 37 17 55 21 17 4 32 11 32 17 0 6 3 9 6 5 4 -3 19 0 35 9 16 8 32 15
36 15 5 1 19 7 33 14 14 8 75 35 135 61 61 25 118 50 127 55 10 5 25 9 33 9 8
0 15 4 15 9 0 5 14 12 31 16 17 4 56 18 88 32 73 32 92 40 114 47 10 3 16 10
13 15 -3 5 5 9 18 9 14 0 48 11 77 26 29 14 57 26 62 26 5 0 23 6 40 14 18 8
64 26 102 41 39 14 95 38 125 52 30 14 60 26 65 27 6 2 30 12 55 23 111 51
142 57 175 33z m982 -336 c2 -5 -9 -15 -24 -21 -16 -7 -55 -24 -88 -38 -33
-15 -82 -37 -110 -50 -27 -13 -108 -50 -180 -83 -279 -128 -259 -121 -269 -96
-4 11 1 18 16 22 12 3 47 18 77 34 31 15 59 28 63 28 3 0 51 21 105 46 54 25
112 52 128 59 17 7 55 24 85 38 173 79 189 84 197 61z m77 -134 c13 -128 10
-172 -10 -187 -31 -23 -44 -16 -45 25 -3 113 7 224 23 233 20 12 25 0 32 -71z
m-88 -23 c9 -54 13 -91 16 -146 l3 -44 -68 -27 c-37 -15 -70 -24 -73 -19 -6
10 4 220 10 227 12 12 25 -15 36 -75 16 -88 28 -109 28 -52 0 24 1 71 2 104 3
92 32 113 46 32z m-162 -69 c4 -18 9 -62 12 -98 4 -36 7 -69 8 -74 1 -12 -51
-42 -59 -34 -8 7 -8 22 -2 134 2 51 8 97 11 103 11 17 23 5 30 -31z m-82 -44
c4 -21 9 -71 13 -109 l6 -70 -32 -12 c-40 -16 -46 -12 -42 29 1 18 5 67 8 108
3 41 8 81 10 88 9 25 30 6 37 -34z m-74 -104 l3 -110 -66 -30 c-37 -17 -71
-30 -77 -30 -6 0 -7 16 -4 40 3 22 2 40 -3 40 -4 0 -7 -20 -7 -45 1 -37 -3
-46 -22 -55 -40 -18 -45 -1 -28 85 2 12 7 46 11 78 10 79 34 78 37 -3 1 -39
17 -68 19 -36 1 9 2 19 3 24 1 4 6 31 10 59 4 29 12 56 18 59 19 12 28 -21 28
-116 1 -109 11 -98 29 35 16 110 17 115 33 115 10 0 14 -28 16 -110z m-2089 1
c36 -16 131 -57 211 -91 80 -34 172 -75 205 -90 33 -15 90 -40 125 -55 36 -15
90 -38 120 -52 30 -14 78 -34 105 -43 40 -15 54 -25 69 -56 25 -51 27 -185 2
-232 -20 -38 -29 -40 -53 -8 -11 13 -55 38 -98 55 -44 18 -93 38 -110 46 -16
7 -77 32 -135 55 -58 23 -123 50 -145 59 -54 25 -209 90 -265 111 -119 45
-151 64 -148 85 2 11 7 23 12 27 5 3 11 16 13 29 2 12 8 28 13 34 6 7 6 15 -1
22 -8 8 -8 20 -1 42 6 17 7 31 3 31 -13 0 -21 28 -15 45 8 21 18 19 93 -14z
m1585 11 c9 -16 -10 -29 -94 -67 -47 -21 -122 -55 -168 -76 -45 -22 -84 -39
-86 -39 -4 0 -92 -40 -246 -112 -87 -40 -127 -51 -132 -33 -2 5 8 15 22 22 68
34 180 83 188 83 5 0 15 7 22 15 7 9 15 13 18 10 3 -3 15 1 26 8 12 7 39 21
61 29 22 9 74 32 115 51 265 122 265 122 274 109z m270 -24 c3 -13 6 -62 6
-110 0 -94 -4 -101 -63 -112 -24 -4 -26 -3 -17 15 6 10 7 19 3 19 -4 0 -3 4 3
8 7 4 15 32 18 62 4 30 8 64 11 75 2 11 4 30 4 43 1 12 7 22 15 22 7 0 16 -10
20 -22z m359 -114 c18 -9 76 -43 130 -76 86 -53 113 -76 90 -79 -5 0 -17 -3
-28 -5 -11 -3 -38 -7 -60 -10 -22 -2 -74 -11 -115 -19 -41 -8 -127 -22 -190
-31 -63 -9 -117 -18 -120 -19 -5 -3 -80 -13 -135 -18 -13 -1 -19 4 -19 16 1 9
2 29 3 45 1 23 10 31 59 51 136 58 303 134 332 151 20 12 17 12 53 -6z m-656
-38 c6 -18 10 -64 9 -101 -1 -74 2 -71 -81 -106 -27 -11 -61 -27 -75 -34 -14
-7 -65 -29 -115 -50 -49 -20 -126 -52 -170 -72 -44 -20 -96 -42 -115 -51 -19
-8 -51 -23 -71 -33 -42 -22 -51 -17 -38 19 9 24 5 105 -7 158 -3 12 -1 25 6
29 16 10 37 -11 45 -48 4 -17 9 -35 10 -39 1 -5 3 -27 4 -50 0 -23 3 -39 5
-37 5 5 14 65 22 139 4 30 10 59 14 64 14 14 29 -28 34 -94 7 -86 13 -85 15 2
2 99 5 112 24 116 14 3 17 -6 18 -50 1 -29 1 -58 0 -65 -1 -6 3 -14 9 -18 6
-3 10 4 11 17 0 13 2 32 4 43 2 11 6 37 8 58 4 39 21 66 33 54 4 -3 8 -25 10
-49 8 -99 19 -109 28 -26 4 35 8 74 9 87 1 13 7 26 14 28 17 6 30 -41 32 -114
1 -18 5 -33 11 -33 13 0 19 30 24 113 2 38 7 71 10 75 16 15 35 -31 52 -123 8
-44 14 -44 15 1 1 21 3 53 4 69 2 17 3 42 4 58 2 45 29 33 36 -15 3 -24 8 -52
10 -63 2 -11 4 -26 4 -34 1 -8 4 -11 8 -7 8 8 14 66 13 133 -1 47 14 63 30 33
6 -11 8 -20 5 -20 -4 0 -3 -6 2 -12 10 -16 10 -18 13 -75 2 -45 2 -46 11 -18
5 17 11 59 15 95 3 35 8 68 10 72 10 16 21 7 31 -26z m3 -245 c0 -15 -9 -20
-40 -23 -41 -4 -40 4 2 27 32 18 38 18 38 -4z m-1428 -9 c33 -15 78 -67 186
-214 21 -30 24 -48 25 -153 0 -89 -3 -120 -13 -135 -14 -20 -28 -2 -136 165
-45 72 -87 135 -91 140 -5 6 -23 32 -42 59 -32 48 -32 50 -18 85 9 20 18 44
21 54 7 21 20 21 68 -1z m2385 -132 c3 -56 1 -79 -9 -87 -15 -12 -73 -24 -80
-17 -3 2 3 30 13 61 11 31 19 82 19 114 0 37 4 59 13 62 19 7 38 -51 44 -133z
m-207 1 c0 -113 -8 -131 -65 -136 -22 -3 -62 -9 -90 -14 -80 -16 -88 -14 -81
12 7 30 18 120 20 169 2 33 25 78 27 53 0 -6 2 -19 4 -30 5 -28 13 -115 14
-150 1 -22 4 -26 10 -15 10 15 20 78 23 149 2 43 22 66 37 42 8 -13 15 -85 15
-156 l-1 -50 20 45 c11 24 22 74 24 110 6 87 9 96 28 80 11 -9 15 -36 15 -109z
m95 109 c12 -19 7 -200 -5 -215 -7 -8 -28 -15 -47 -15 -30 0 -34 3 -28 18 4 9
13 40 21 67 11 42 15 70 23 148 1 11 29 9 36 -3z m-2076 -60 c25 -12 59 -28
74 -35 16 -8 32 -15 37 -15 22 0 82 -32 74 -40 -5 -5 -42 -12 -82 -15 -86 -8
-104 1 -151 70 -17 25 -31 48 -31 51 0 10 37 3 79 -16z m1721 -10 c14 -34 9
-185 -6 -199 -5 -5 -29 -12 -54 -15 -25 -3 -57 -8 -72 -11 -33 -6 -34 0 -12
74 8 29 15 77 15 107 0 53 12 75 30 57 10 -10 16 -62 18 -158 2 -56 3 -58 15
-35 17 31 29 102 27 154 -2 63 18 76 39 26z m-189 3 c0 -5 2 -17 4 -28 3 -11
6 -57 9 -103 4 -91 -5 -112 -50 -112 -26 0 -26 0 -8 60 7 25 11 64 13 148 1
30 5 42 16 42 8 0 15 -3 16 -7z m-75 -122 c6 -106 -1 -131 -35 -131 -14 0 -15
11 -5 122 13 144 11 135 24 122 6 -6 13 -57 16 -113z m-265 33 c4 -21 5 -70 3
-109 -4 -80 -23 -106 -78 -103 -17 0 -46 -3 -65 -7 -31 -7 -34 -6 -27 11 18
42 28 102 30 163 1 40 6 66 13 68 16 6 29 -47 32 -132 1 -38 6 -74 11 -79 12
-12 41 94 45 163 2 31 4 60 4 64 1 5 7 7 13 5 7 -3 16 -22 19 -44z m-185 -51
c16 -130 10 -176 -24 -185 -34 -9 -41 3 -31 56 5 28 10 77 12 110 5 103 31
115 43 19z m-85 -7 c0 -17 2 -40 4 -51 8 -37 8 -112 1 -123 -9 -15 -33 -15
-41 -2 -9 15 -8 217 1 231 11 18 34 -19 35 -55z m-91 15 c5 -11 10 -53 10 -94
0 -81 -10 -100 -47 -87 -19 8 -20 12 -12 51 6 23 10 63 11 88 0 25 2 49 5 54
8 13 22 8 33 -12z m-84 -61 c12 -100 11 -105 -13 -108 -25 -4 -25 -3 -25 77 1
113 26 133 38 31z m-75 33 c7 -45 6 -114 -1 -118 -6 -4 -18 -4 -28 -1 -20 7
-21 50 -3 99 10 25 29 37 32 20z m-81 -52 c0 -25 -29 -67 -31 -45 0 5 -2 20
-4 34 -3 27 12 53 26 44 5 -3 9 -18 9 -33z m-313 1 c2 -9 4 -52 4 -95 1 -79
-6 -98 -43 -118 -16 -9 -18 -6 -14 25 2 20 7 40 11 46 4 6 9 41 11 78 3 37 7
73 10 81 5 16 17 8 21 -17z m68 18 c4 -6 7 -42 7 -81 1 -57 -3 -72 -18 -84
-31 -23 -34 -18 -28 43 4 31 6 74 5 95 -1 27 3 37 13 37 8 0 18 -5 21 -10z
m77 -42 c2 -34 -2 -56 -11 -65 -16 -17 -37 -11 -33 8 2 8 4 32 5 54 0 36 10
54 29 55 3 0 8 -23 10 -52z m-315 15 c3 -16 7 -68 7 -116 1 -75 -2 -91 -17
-102 -11 -8 -26 -11 -34 -8 -12 5 -13 21 -8 87 3 44 7 90 10 101 2 11 4 30 4
43 1 31 29 28 38 -5z m82 -36 c13 -74 14 -147 3 -165 -11 -17 -54 -24 -63 -11
-3 6 -3 28 2 49 8 37 16 105 18 163 1 16 7 27 15 27 9 0 18 -21 25 -63z m311
45 c0 -19 -18 -42 -32 -42 -4 0 -8 14 -8 30 0 23 4 30 20 30 13 0 20 -7 20
-18z m2299 -122 c64 -47 69 -67 44 -164 -11 -44 -38 -125 -58 -179 -31 -80
-43 -101 -71 -118 -19 -11 -39 -17 -45 -13 -17 10 -39 69 -35 91 3 11 7 44 11
73 4 29 9 62 11 74 2 12 7 37 10 56 3 19 12 64 20 99 29 122 42 132 113 81z
m-2239 -4 c14 -4 39 -9 55 -12 17 -2 46 -9 65 -14 19 -4 60 -12 90 -15 30 -4
63 -9 72 -10 9 -2 43 -6 75 -9 32 -4 83 -9 113 -13 57 -6 98 -10 138 -12 18
-1 22 -7 22 -36 0 -39 3 -38 -71 -25 -68 12 -123 20 -174 25 -67 6 -148 16
-180 22 -16 3 -48 7 -70 8 -22 2 -60 8 -85 14 -25 6 -54 10 -65 10 -19 0 -19
0 -1 -14 10 -8 39 -17 63 -21 l45 -7 -24 -22 c-12 -12 -26 -21 -29 -19 -3 2
-24 6 -46 8 -22 3 -52 10 -66 15 -17 7 -28 7 -32 1 -7 -12 1 -15 78 -30 58
-12 67 -23 35 -44 -11 -7 -40 -4 -97 10 -71 18 -84 18 -108 6 -29 -15 -124
-99 -120 -106 6 -11 -37 -43 -52 -39 -13 3 -18 -1 -17 -18 1 -16 -7 -25 -27
-32 -34 -11 -43 -4 -50 45 -4 29 -1 42 16 60 23 24 183 148 191 148 3 0 47 32
98 71 65 50 98 69 113 66 11 -3 31 -8 45 -11z m1790 -138 c11 -12 20 -28 20
-35 0 -7 -20 -53 -45 -102 l-44 -89 -43 16 c-81 32 -83 34 -63 73 45 89 87
148 108 152 41 8 46 7 67 -15z m-1370 -14 c47 -8 99 -18 117 -20 51 -9 83 -18
83 -26 1 -39 0 -40 -27 -33 -90 24 -172 39 -278 50 -78 8 -81 9 -95 34 -9 17
-5 18 52 15 35 -2 101 -11 148 -20z m503 -52 c15 -14 27 -29 27 -33 0 -11 -37
-49 -94 -94 l-48 -39 6 99 c10 140 10 140 49 114 18 -12 44 -34 60 -47z
m-1028 -6 c99 -22 101 -23 80 -46 -13 -14 -26 -17 -53 -13 -42 6 -57 18 -67
52 -6 21 -5 23 11 17 11 -5 24 -9 29 -10z m440 -1 c52 -2 239 -41 265 -55 12
-7 24 -60 12 -60 -2 0 -41 11 -86 25 -77 23 -173 41 -238 44 -21 1 -48 28 -48
47 0 11 6 13 23 8 12 -4 45 -8 72 -9z m-1705 -40 l23 -25 -41 -84 c-49 -97
-65 -115 -88 -95 -17 14 -16 31 11 124 15 51 48 105 64 105 4 0 18 -11 31 -25z
m1508 -30 c-2 -11 -10 -19 -18 -17 -8 2 -27 4 -41 4 -24 1 -26 3 -16 20 8 13
22 18 45 16 27 -2 32 -6 30 -23z m1179 -4 c125 -32 135 -38 127 -75 -3 -17 -8
-32 -9 -34 -1 -2 -38 6 -81 17 -136 34 -283 54 -304 41 -23 -14 -9 -19 70 -25
41 -4 82 -9 90 -11 8 -3 31 -7 50 -10 19 -2 53 -10 75 -16 22 -6 46 -13 53
-14 35 -7 43 -15 39 -41 -3 -23 -8 -27 -28 -25 -13 2 -28 8 -33 13 -6 5 -20 9
-31 9 -12 0 -25 3 -29 7 -3 4 -12 8 -19 9 -7 1 -48 9 -92 18 -105 23 -231 31
-239 17 -4 -6 -4 -11 1 -12 102 -6 169 -15 253 -36 36 -8 72 -16 80 -18 8 -1
26 -7 40 -12 14 -6 41 -16 60 -23 29 -10 36 -18 38 -41 1 -16 1 -29 -2 -29 -2
0 -35 12 -72 26 -38 14 -76 27 -84 29 -8 2 -42 10 -75 18 -132 33 -306 49
-312 30 -3 -8 5 -13 19 -14 45 -2 93 -9 163 -24 38 -7 86 -17 105 -20 65 -11
203 -50 232 -66 10 -5 23 -9 30 -9 6 0 24 -12 40 -26 20 -20 39 -28 75 -30 26
-1 79 -16 118 -32 52 -23 73 -28 83 -19 10 8 1 15 -40 29 -99 36 -94 32 -65
51 24 16 28 15 76 -5 28 -11 51 -24 51 -28 0 -14 65 -90 77 -90 24 0 13 -15
-38 -49 -46 -31 -93 -70 -157 -128 -14 -13 -28 -23 -31 -23 -3 0 -17 -10 -31
-23 -14 -12 -77 -60 -140 -107 -63 -46 -122 -90 -130 -97 -124 -103 -386 -288
-433 -306 -10 -4 -49 9 -93 29 -42 20 -81 37 -88 39 -6 1 -20 6 -31 10 -127
51 -225 88 -235 90 -3 1 -36 12 -75 24 -38 13 -86 27 -105 32 -60 16 -203 48
-240 54 -19 3 -51 10 -70 15 -19 6 -47 10 -62 10 -17 0 -28 5 -28 13 0 7 51
51 113 97 143 107 301 232 305 242 2 4 10 8 18 8 8 0 14 3 14 8 0 4 16 18 35
31 19 13 47 34 62 47 16 13 31 24 35 24 4 0 13 6 20 13 7 7 43 36 80 65 l66
51 7 -40 c4 -26 3 -45 -4 -52 -13 -13 -15 -31 -2 -23 10 7 24 -22 16 -34 -3
-4 -22 -4 -42 1 -23 5 -42 4 -47 -1 -6 -6 -8 -10 -5 -11 2 0 13 -2 24 -5 11
-2 30 -5 43 -6 12 -1 22 -7 22 -13 0 -17 -17 -38 -27 -32 -19 12 -123 19 -123
8 0 -6 19 -11 43 -12 23 -1 52 -4 65 -7 20 -6 21 -9 9 -26 -12 -17 -19 -18
-63 -8 -87 19 -113 22 -119 12 -3 -6 6 -10 22 -11 15 0 38 -2 51 -5 12 -2 32
-6 45 -8 12 -3 28 -5 35 -5 8 -1 10 -10 6 -28 -4 -16 -7 -29 -8 -30 -1 -1 -48
7 -105 18 -65 13 -107 17 -113 11 -8 -8 25 -17 102 -28 69 -9 128 -23 260 -61
47 -14 99 -27 115 -30 17 -2 34 -9 40 -14 5 -5 15 -9 21 -9 7 0 25 -5 41 -12
15 -6 33 -12 39 -13 16 -4 129 -52 177 -76 42 -21 57 -23 57 -11 0 26 -365
165 -493 188 -53 9 -54 19 -2 37 43 13 49 13 113 -10 37 -13 74 -26 82 -28 29
-7 215 -75 232 -85 10 -5 24 -10 32 -10 7 0 19 -7 26 -15 6 -8 15 -14 18 -13
4 1 18 -4 31 -11 15 -8 27 -9 33 -3 7 7 -1 12 -21 17 -17 4 -31 10 -31 15 0 4
-8 10 -17 13 -10 3 -52 20 -93 37 -114 48 -242 93 -300 105 l-35 8 32 13 c41
18 66 14 193 -31 118 -41 145 -52 248 -101 75 -35 92 -40 92 -26 0 9 -181 94
-200 94 -3 0 -14 5 -25 11 -15 8 -134 53 -152 57 -2 1 -17 6 -35 13 l-33 11
50 11 c46 11 57 9 135 -18 47 -16 131 -51 187 -77 116 -55 149 -67 139 -52
-10 17 -214 112 -301 140 -72 24 -77 27 -50 32 47 10 112 4 160 -15 88 -35
148 -61 197 -86 31 -16 59 -25 62 -20 3 5 0 13 -7 19 -23 19 -137 73 -204 97
-68 24 -68 24 -28 26 73 2 120 -3 145 -15 131 -65 155 -75 156 -61 0 6 -29 24
-65 42 -65 31 -65 32 -26 28 56 -6 117 -15 137 -21 10 -3 26 0 37 6 17 8 19
15 11 35 -11 28 -8 30 22 14 14 -8 23 -8 31 0 8 8 -20 25 -96 61 -58 27 -111
50 -118 50 -6 0 -25 6 -42 14 -18 7 -52 19 -77 26 -25 7 -65 18 -90 26 -49 14
-89 22 -135 28 -16 3 -52 10 -80 16 -72 17 -73 17 -151 25 -40 4 -74 3 -77 -2
-3 -5 4 -9 16 -10 24 -1 150 -19 182 -26 11 -3 40 -8 65 -13 25 -4 47 -8 50
-9 3 -1 23 -5 45 -10 22 -5 42 -10 45 -10 55 -13 132 -38 185 -60 17 -7 51
-20 78 -30 26 -10 47 -19 47 -22 0 -4 -12 -2 -95 16 -27 6 -70 13 -95 15 -39
3 -116 22 -228 55 -18 5 -36 10 -40 11 -4 0 -16 3 -27 5 -11 3 -32 7 -47 10
-16 3 -38 7 -50 10 -13 2 -39 6 -58 9 -19 2 -48 7 -63 11 -28 7 -28 7 -22 74
5 55 11 70 34 91 40 36 157 122 191 141 41 23 191 18 297 -10z m-799 -48 l92
-26 0 -88 0 -88 -107 -81 c-60 -45 -153 -116 -208 -157 -114 -85 -113 -84
-180 -139 -27 -23 -104 -81 -170 -128 l-120 -86 -25 28 c-25 29 -54 47 -123
77 -59 26 -177 65 -177 58 0 -3 -6 -1 -13 5 -7 7 -37 16 -65 23 -47 10 -81 29
-51 29 7 0 20 7 29 15 16 14 27 13 116 -10 55 -14 113 -33 131 -41 17 -7 35
-14 40 -14 4 0 30 -11 58 -25 51 -26 98 -27 59 -2 -26 17 -132 62 -156 66 -5
1 -26 8 -49 17 -22 9 -69 24 -104 33 -59 16 -62 18 -49 35 13 18 18 18 71 6
32 -8 60 -14 63 -15 3 -1 21 -5 40 -9 19 -5 74 -25 123 -46 48 -21 87 -36 87
-33 0 2 7 -3 16 -11 18 -18 30 -20 39 -6 7 11 -31 37 -71 49 -16 5 -60 21 -99
35 -38 15 -83 28 -100 31 -33 5 -147 34 -152 39 -7 7 10 36 21 36 33 0 289
-62 331 -80 11 -5 46 -20 77 -34 52 -22 79 -21 64 3 -12 19 -318 109 -433 127
-43 7 -47 11 -37 37 6 16 9 15 173 -22 120 -27 254 -66 310 -92 30 -14 47 -17
54 -10 7 7 1 14 -19 21 -16 6 -51 19 -79 30 -57 21 -166 54 -240 70 -57 13
-76 18 -107 26 -13 3 -32 7 -43 8 -11 2 -23 4 -27 5 -10 1 -10 13 0 27 7 13
72 3 202 -30 36 -10 92 -24 125 -32 71 -16 71 -16 158 -44 37 -11 67 -26 68
-33 1 -7 0 -24 -1 -39 -1 -14 6 -41 15 -59 l17 -32 26 26 c26 27 56 109 68
185 6 43 18 60 29 42 8 -13 35 -13 35 0 0 5 -11 12 -25 16 -20 5 -25 12 -23
35 3 34 4 34 69 13 31 -10 54 -13 60 -7 5 5 -16 16 -56 28 -64 20 -76 32 -56
63 6 11 20 9 72 -8 35 -12 70 -26 76 -32 7 -6 20 -7 30 -4 14 6 13 9 -8 24
-13 9 -28 18 -34 19 -53 12 -131 43 -132 54 -6 31 13 42 49 30 19 -6 44 -13
56 -16 11 -2 30 -9 41 -15 12 -6 21 -8 21 -6 0 3 16 -3 36 -14 32 -19 54 -19
54 -2 0 12 -96 52 -172 71 -74 19 -84 26 -69 49 6 10 18 11 52 3 24 -5 60 -13
79 -16 19 -3 44 -9 55 -12 11 -4 25 -7 30 -8 6 -1 21 -6 35 -12 49 -20 68 -24
75 -13 9 14 3 20 -24 25 -13 2 -31 7 -41 10 -10 3 -27 8 -37 10 -223 49 -222
49 -218 70 2 11 4 20 4 21 5 5 198 -33 269 -53z m-590 39 c9 -7 8 -13 -8 -27
-22 -20 -25 -20 -34 13 -6 17 -3 22 11 22 10 0 24 -4 31 -8z m-149 -44 c10
-27 5 -39 -12 -33 -74 26 -73 26 -53 41 29 21 55 17 65 -8z m344 13 c4 -1 7
-12 7 -25 0 -25 -1 -26 -60 -11 -8 2 -25 4 -38 4 -20 1 -21 3 -10 22 11 16 20
19 53 15 22 -3 43 -5 48 -5z m-1053 -21 c45 -24 43 -44 -9 -147 -46 -92 -54
-101 -127 -155 -66 -48 -80 -55 -87 -42 -18 32 10 106 95 251 59 100 82 117
128 93z m665 -32 c40 -11 45 -15 45 -40 0 -16 -5 -28 -12 -28 -16 0 -119 27
-124 33 -5 5 29 47 38 47 4 0 28 -5 53 -12z m373 -11 c16 -1 16 -47 -1 -47 -8
0 -39 5 -69 11 -48 10 -55 14 -50 31 4 18 10 19 56 13 28 -4 57 -7 64 -8z
m1528 -10 l52 -22 -22 -28 c-21 -25 -24 -27 -57 -16 -49 17 -63 33 -55 63 8
31 16 32 82 3z m-1930 -53 c65 -16 70 -19 66 -40 -5 -28 -15 -29 -101 -9 -81
19 -86 23 -65 46 21 23 14 23 100 3z m347 2 c42 -8 57 -19 57 -42 0 -20 -4
-24 -17 -20 -16 5 -47 13 -130 33 -19 4 -21 8 -12 25 11 20 13 20 102 4z
m-738 -53 c-4 -32 -8 -71 -9 -88 -1 -17 -7 -30 -14 -29 -6 1 -19 2 -27 3 -11
1 -15 15 -15 57 0 51 3 59 33 85 17 16 33 29 35 29 2 0 0 -26 -3 -57z m2291
-1 c-7 -7 -46 9 -46 18 0 5 11 4 25 -2 14 -6 23 -13 21 -16z m-1911 -17 c38
-8 71 -15 72 -15 2 0 3 -11 3 -25 0 -21 -4 -25 -22 -21 -52 10 -95 18 -133 22
-63 7 -65 9 -52 39 13 28 9 28 132 0z m292 1 c61 -8 113 -27 113 -42 0 -31
-27 -29 -182 13 -15 3 -15 7 -5 24 7 11 18 17 28 14 9 -3 30 -7 46 -9z m2306
-148 c2 -105 2 -107 -18 -94 -26 17 -74 86 -75 107 0 9 -7 22 -15 29 -8 7 -15
18 -15 24 0 16 37 49 75 69 28 14 30 14 38 -6 4 -12 9 -70 10 -129z m-290 108
c18 -7 40 -23 50 -34 18 -20 18 -21 -3 -32 -13 -7 -43 -28 -68 -46 -24 -19
-45 -33 -47 -32 -1 2 0 38 3 81 5 84 8 88 65 63z m-2326 -27 c15 -6 28 -10 28
-9 0 9 78 -16 82 -25 3 -9 21 -12 57 -10 45 3 99 -8 166 -32 8 -4 24 -8 35
-10 30 -6 38 -19 29 -46 l-9 -25 -60 20 c-85 28 -218 66 -246 72 -13 2 -31 7
-39 10 -8 3 -28 7 -45 10 -16 3 -58 10 -92 17 -56 11 -61 14 -52 31 9 17 18
18 64 14 30 -4 67 -11 82 -17z m338 -7 c59 -14 71 -21 73 -39 3 -19 -1 -23
-22 -23 -14 0 -35 4 -48 9 -45 17 -121 38 -152 40 -5 1 -1 10 9 21 19 22 23
21 140 -8z m1737 -7 c6 -30 5 -30 -28 -8 -19 12 -22 18 -12 24 23 15 36 10 40
-16z m-832 -22 c19 -2 51 -8 70 -13 19 -5 50 -12 69 -15 19 -3 37 -8 41 -10 4
-2 21 -7 37 -10 17 -3 42 -9 55 -14 20 -7 16 -10 -27 -16 -27 -3 -54 -8 -60
-9 -5 -2 -19 0 -31 5 -11 4 -38 10 -60 13 -21 4 -56 11 -76 17 -20 5 -55 12
-78 15 -23 3 -48 7 -55 8 -22 3 -28 13 -21 32 5 14 14 15 54 10 26 -4 63 -10
82 -13z m-1634 -13 c9 0 14 -11 14 -30 0 -34 0 -33 -32 -21 -16 6 -24 18 -26
36 -1 21 2 26 14 21 9 -3 22 -6 30 -6z m2850 -7 c7 -10 14 -28 14 -40 0 -12 6
-26 14 -30 17 -10 36 -47 36 -70 0 -10 -12 -26 -27 -36 -16 -9 -47 -34 -70
-54 -23 -21 -56 -49 -74 -63 -18 -14 -38 -31 -45 -37 -7 -7 -60 -48 -117 -91
-58 -43 -125 -95 -149 -115 -23 -20 -72 -60 -108 -89 -36 -29 -67 -55 -70 -58
-3 -3 -23 -19 -45 -36 -22 -16 -44 -34 -50 -40 -5 -6 -44 -35 -85 -64 -41 -29
-77 -56 -80 -60 -3 -3 -41 -35 -85 -70 -44 -35 -82 -67 -85 -70 -3 -3 -27 -21
-53 -40 l-49 -35 -24 28 c-22 26 -23 30 -9 50 8 13 38 43 67 67 29 25 63 55
75 67 13 12 43 36 67 53 25 16 48 35 51 40 7 11 -111 -66 -133 -87 -23 -22
-159 -123 -166 -123 -3 0 -6 6 -6 13 0 22 54 68 284 245 26 20 96 75 155 122
58 47 120 95 136 107 17 12 25 23 19 23 -6 0 -19 -9 -29 -20 -10 -11 -24 -20
-31 -20 -7 0 -14 -3 -16 -8 -4 -9 -184 -152 -192 -152 -3 0 -14 -8 -24 -17
-10 -10 -29 -25 -41 -33 -52 -34 -146 -105 -149 -112 -2 -5 -10 -8 -17 -8 -7
0 -15 -3 -17 -8 -4 -10 -90 -72 -100 -72 -4 0 -8 4 -8 9 0 9 46 61 55 61 5 0
15 7 48 35 7 6 39 31 72 55 33 25 62 47 65 51 3 3 25 19 50 37 25 17 59 42 75
56 46 39 47 40 114 92 35 27 70 54 79 59 10 6 19 13 22 16 3 3 41 32 85 66 44
33 132 103 196 154 65 52 143 113 175 136 33 24 82 63 109 88 55 49 71 54 91
28z m-1256 -37 c38 -7 137 -28 155 -34 17 -5 16 -7 -10 -13 -53 -12 -129 -9
-180 6 -27 9 -52 14 -55 13 -3 -2 -6 7 -8 20 -4 24 1 25 98 8z m-1597 -28 c26
-20 12 -56 -19 -50 -19 3 -24 11 -24 33 0 31 15 37 43 17z m1563 -46 c-16 -2
-35 3 -44 12 -13 13 -10 13 29 3 40 -11 42 -12 15 -15z m-1560 -27 c10 -25 -3
-44 -25 -38 -29 7 -29 53 -1 53 11 0 23 -7 26 -15z m-241 -36 c9 -28 3 -32
-31 -19 -28 11 -28 12 -10 26 26 19 33 18 41 -7z m262 -47 c7 -10 20 -25 29
-34 21 -22 16 -22 -50 -3 -45 13 -52 19 -52 40 0 23 3 25 31 19 16 -3 35 -13
42 -22z m-286 -20 c15 -6 29 -9 32 -6 2 3 19 -13 37 -36 26 -33 28 -40 14 -40
-9 0 -15 -2 -12 -5 7 -7 31 -11 93 -17 28 -3 40 -3 28 -1 -21 4 -21 5 -5 34
20 33 25 34 82 14 24 -8 45 -13 48 -11 2 3 16 0 31 -6 14 -5 71 -21 125 -34
156 -38 286 -112 286 -163 0 -22 -33 -30 -45 -11 -15 24 -275 138 -275 121 0
-4 18 -13 41 -20 56 -17 186 -80 201 -98 9 -11 9 -16 -3 -24 -8 -5 -18 -7 -24
-5 -5 1 -15 -10 -22 -26 -7 -15 -19 -31 -27 -34 -8 -3 -61 11 -118 30 -146 51
-162 56 -186 56 -11 0 -23 4 -26 9 -3 5 -27 14 -53 21 -27 8 -50 14 -53 15 -3
0 -21 5 -40 9 -19 5 -39 12 -45 16 -5 5 -23 11 -40 14 -36 6 -191 48 -257 69
-27 8 -48 12 -48 9 0 -3 -6 0 -12 6 -10 10 -6 18 16 37 16 14 30 35 31 47 1
13 3 26 4 29 0 4 16 6 34 4 17 -1 41 1 52 6 24 10 99 5 136 -9z m857 -367 c33
-36 46 -44 56 -36 7 6 17 7 21 3 5 -4 5 -1 1 6 -4 6 -18 12 -32 12 -26 0 -33
24 -9 34 14 5 92 0 145 -10 14 -3 43 -7 65 -10 22 -2 55 -10 73 -15 18 -6 39
-12 45 -13 28 -6 101 -28 116 -36 31 -16 132 -60 137 -60 4 0 41 -16 83 -36
42 -19 80 -36 86 -37 14 -3 178 -98 198 -116 11 -9 32 -43 48 -76 16 -33 36
-70 45 -82 38 -53 -21 -38 -306 78 -41 17 -84 35 -95 39 -11 4 -36 15 -55 23
-76 32 -199 80 -275 107 -44 16 -111 41 -150 55 -38 14 -78 28 -89 30 -22 5
-19 2 -39 40 -14 26 -18 25 -17 0 1 -9 -23 -31 -48 -44 -29 -15 -89 -7 -152
21 -61 27 -90 56 -90 88 0 32 42 78 79 86 14 3 31 7 36 8 32 8 84 -17 123 -59z"/>
<path d="M3625 5911 c6 -5 102 -49 215 -96 113 -48 234 -100 269 -116 60 -27
119 -42 81 -19 -9 5 -22 10 -30 12 -8 2 -18 6 -21 11 -3 4 -14 9 -25 11 -10 2
-46 16 -79 32 -33 15 -62 28 -65 29 -31 11 -128 53 -152 66 -10 5 -22 9 -28 9
-6 0 -29 9 -53 19 -74 34 -122 52 -112 42z"/>
<path d="M3660 5822 c0 -8 61 -34 67 -29 1 2 -13 11 -32 20 -19 9 -35 13 -35
9z"/>
<path d="M3780 5763 c8 -3 24 -10 35 -15 20 -9 20 -9 1 6 -11 9 -27 16 -35 15
-14 0 -14 -1 -1 -6z"/>
<path d="M3847 5739 c7 -7 15 -10 18 -7 3 3 -2 9 -12 12 -14 6 -15 5 -6 -5z"/>
<path d="M3884 5722 c3 -5 17 -12 32 -15 30 -5 20 8 -15 18 -15 4 -21 3 -17
-3z"/>
<path d="M3955 5691 c2 -5 16 -11 31 -14 15 -2 22 -1 17 4 -12 12 -55 20 -48
10z"/>
<path d="M4030 5660 c20 -13 33 -13 25 0 -3 6 -14 10 -23 10 -15 0 -15 -2 -2
-10z"/>
<path d="M4075 5640 c3 -5 13 -10 21 -10 8 0 37 -11 66 -25 28 -14 59 -25 67
-25 9 0 25 -7 35 -15 11 -8 27 -15 35 -15 25 0 0 17 -49 33 -25 8 -72 27 -104
41 -63 28 -81 32 -71 16z"/>
<path d="M4335 5536 c11 -8 24 -12 29 -8 5 3 1 9 -10 13 -31 12 -39 10 -19 -5z"/>
<path d="M4237 5509 c7 -7 15 -10 18 -7 3 3 -2 9 -12 12 -14 6 -15 5 -6 -5z"/>
<path d="M4806 4182 c-3 -6 15 -13 40 -17 25 -3 56 -8 67 -11 12 -2 36 -6 52
-9 126 -17 450 -120 628 -199 65 -29 67 -30 67 -16 0 6 -7 10 -15 10 -8 0 -15
5 -15 10 0 6 -3 9 -7 8 -7 -1 -39 10 -88 31 -11 5 -40 16 -65 26 -25 9 -56 22
-70 27 -23 10 -236 71 -285 83 -76 18 -195 43 -235 50 -19 3 -42 8 -52 11 -9
3 -19 1 -22 -4z"/>
<path d="M4736 4132 c-3 -5 7 -9 22 -10 15 0 59 -8 97 -16 39 -8 74 -11 78 -7
4 5 -14 11 -40 14 -26 4 -59 9 -73 12 -61 13 -79 15 -84 7z"/>
<path d="M4690 4088 c0 -4 3 -9 8 -9 42 -7 62 -6 62 1 0 4 -16 10 -35 12 -19
2 -35 0 -35 -4z"/>
<path d="M4955 4092 c5 -6 138 -43 166 -46 8 -1 28 -7 45 -13 16 -6 67 -23
114 -38 47 -15 90 -31 96 -36 6 -5 19 -10 30 -12 22 -5 53 -17 130 -52 62 -28
64 -29 64 -15 0 9 -22 20 -115 61 -60 26 -181 70 -213 78 -20 5 -73 19 -117
31 -104 27 -208 49 -200 42z"/>
<path d="M4770 4076 c0 -3 19 -10 43 -16 23 -6 50 -13 60 -16 9 -3 17 -1 17 4
0 5 -19 12 -43 15 -24 3 -51 9 -60 13 -9 3 -17 4 -17 0z"/>
<path d="M4910 4041 c8 -5 44 -16 80 -25 96 -24 264 -78 275 -87 5 -5 15 -9
21 -9 7 0 61 -23 121 -51 115 -54 112 -53 114 -42 3 15 -206 113 -238 113 -7
0 -13 5 -13 10 0 6 -15 10 -33 10 -18 0 -37 4 -42 9 -6 6 -28 14 -50 20 -22 5
-74 19 -115 29 -106 28 -138 34 -120 23z"/>
<path d="M4612 4035 c4 -4 24 -10 45 -12 43 -4 57 -7 131 -23 29 -7 56 -9 59
-6 3 3 -8 8 -23 11 -16 3 -43 10 -59 15 -40 13 -162 24 -153 15z"/>
<path d="M4550 3990 c0 -5 1 -10 3 -10 4 0 110 -19 142 -25 17 -3 57 -13 90
-22 33 -8 65 -16 70 -18 50 -11 86 -23 185 -62 63 -24 135 -53 160 -64 25 -12
61 -28 80 -36 19 -8 47 -21 63 -29 15 -9 27 -11 27 -6 0 6 -36 28 -80 51 -44
22 -80 38 -80 35 0 -4 -6 -2 -13 4 -6 6 -32 18 -57 27 -25 9 -70 25 -100 36
-30 11 -59 22 -65 23 -5 2 -17 6 -25 9 -28 10 -95 31 -105 32 -5 0 -28 6 -50
12 -34 9 -132 31 -222 49 -13 2 -23 0 -23 -6z"/>
<path d="M4865 3990 c-3 -5 -1 -11 5 -15 5 -3 10 -4 10 -1 0 3 24 -2 52 -11
29 -8 63 -17 75 -19 12 -2 43 -13 68 -24 25 -11 56 -22 68 -24 12 -2 48 -16
80 -30 32 -14 62 -26 67 -26 5 0 34 -12 65 -26 31 -15 58 -24 61 -22 5 5 -241
118 -256 118 -5 0 -21 5 -37 12 -15 6 -35 12 -43 13 -8 1 -26 6 -40 12 -49 21
-170 51 -175 43z"/>
<path d="M6085 4020 c-3 -6 1 -7 9 -4 18 7 21 14 7 14 -6 0 -13 -4 -16 -10z"/>
<path d="M3400 4220 c0 -4 19 -14 43 -23 41 -16 62 -21 122 -32 28 -5 28 -5
-5 8 -69 28 -160 54 -160 47z"/>
<path d="M3790 4131 c24 -14 66 -25 55 -13 -5 5 -23 12 -40 16 -20 4 -25 3
-15 -3z"/>
<path d="M3890 4106 c14 -7 41 -16 60 -20 l35 -6 -30 14 c-16 7 -43 16 -60 20
l-30 6 25 -14z"/>
<path d="M3680 4079 c0 -5 4 -8 9 -4 8 5 153 -29 171 -40 4 -2 17 -6 31 -8 13
-3 59 -17 103 -31 43 -15 84 -25 90 -22 8 3 7 5 -1 5 -6 1 -24 6 -40 12 -15 6
-29 10 -30 10 -2 0 -22 7 -45 15 -44 16 -263 74 -279 74 -5 0 -9 -5 -9 -11z"/>
<path d="M4105 3960 c3 -5 14 -10 23 -10 15 0 15 2 2 10 -20 13 -33 13 -25 0z"/>
<path d="M4157 3939 c7 -7 15 -10 18 -7 3 3 -2 9 -12 12 -14 6 -15 5 -6 -5z"/>
<path d="M4270 3892 c-14 -2 -33 -11 -42 -19 -38 -34 40 -98 131 -107 57 -5
67 4 47 46 -27 56 -81 88 -136 80z"/>
<path d="M4695 3809 c4 -6 9 -8 12 -5 3 3 14 1 24 -5 11 -5 19 -6 19 -1 0 6
-10 12 -22 16 -33 8 -40 7 -33 -5z"/>
<path d="M4808 3773 c7 -3 16 -2 19 1 4 3 -2 6 -13 5 -11 0 -14 -3 -6 -6z"/>
<path d="M4860 3756 c0 -2 9 -6 20 -9 11 -3 18 -1 14 4 -5 9 -34 13 -34 5z"/>
<path d="M5055 3630 c27 -12 43 -12 25 0 -8 5 -22 9 -30 9 -10 0 -8 -3 5 -9z"/>
<path d="M5120 3605 c14 -8 30 -14 35 -14 6 0 -1 6 -15 14 -14 8 -29 14 -35
14 -5 0 1 -6 15 -14z"/>
<path d="M5175 3580 c3 -5 11 -10 17 -10 11 0 82 -30 121 -51 11 -6 22 -8 25
-5 7 8 7 8 -80 44 -85 35 -92 37 -83 22z"/>
<path d="M7832 6070 c-32 -20 -29 -13 -158 -470 -69 -248 -96 -330 -109 -330
-2 0 -21 16 -42 36 -72 68 -126 74 -183 20 -84 -78 -123 -233 -121 -475 1
-134 3 -149 26 -197 25 -50 60 -83 94 -89 22 -3 48 11 100 57 76 66 87 51 90
-117 1 -113 16 -167 52 -188 30 -18 86 19 113 77 22 47 28 69 41 136 3 14 7
36 10 50 6 29 23 162 31 235 2 28 9 70 14 95 5 25 14 70 19 100 6 30 12 65 15
76 2 12 7 37 10 55 3 19 14 79 25 134 11 55 23 123 26 150 4 28 8 57 10 65 2
8 7 35 10 60 3 25 8 61 10 80 6 37 11 84 20 165 3 28 7 61 9 75 14 95 18 152
12 174 -10 40 -77 54 -124 26z m-362 -880 c67 -47 74 -75 45 -178 -37 -132
-88 -252 -117 -277 -40 -34 -54 -31 -76 11 -15 30 -17 46 -10 88 59 348 72
392 111 380 12 -4 33 -15 47 -24z"/>
<path d="M1570 5719 c-124 -21 -199 -48 -379 -138 -115 -56 -136 -71 -148 -98
-7 -18 -13 -40 -13 -49 0 -28 62 -10 143 40 110 68 248 121 377 143 25 4 95 7
155 8 89 0 124 -4 181 -23 323 -106 391 -537 154 -977 -73 -136 -241 -362
-392 -529 -46 -51 -58 -58 -92 -60 -37 -1 -39 1 -51 39 -15 54 -5 92 49 186
55 94 58 119 17 119 -33 0 -88 -35 -138 -88 -33 -35 -35 -36 -49 -17 -16 22
-17 57 -4 140 5 33 12 80 15 105 3 25 7 56 10 70 2 14 7 45 10 70 3 25 10 70
15 100 5 30 11 73 14 95 6 44 17 111 21 135 3 14 7 50 20 155 2 17 4 73 5 126
3 142 -30 190 -127 185 -48 -3 -76 -23 -104 -77 -27 -54 -31 -86 -34 -274 -1
-93 -5 -181 -8 -195 -3 -14 -8 -47 -12 -75 -3 -27 -14 -113 -25 -190 -43 -314
-45 -399 -14 -555 3 -14 8 -41 11 -60 3 -19 12 -47 20 -63 13 -26 17 -27 83
-26 66 1 74 -1 142 -42 87 -53 130 -56 208 -13 105 57 281 254 399 447 114
187 215 436 237 587 51 354 -8 569 -196 709 -132 98 -288 126 -500 90z"/>
<path d="M8943 5615 c-45 -19 -87 -67 -146 -165 -52 -87 -115 -170 -129 -170
-4 0 -8 6 -8 13 0 26 -60 136 -80 147 -32 17 -81 3 -107 -29 -37 -47 -53 -132
-58 -301 -2 -85 -7 -211 -11 -280 -12 -234 -9 -277 21 -321 l27 -38 34 23 c55
37 71 67 109 197 78 265 108 349 179 494 72 149 116 215 141 215 7 0 25 -13
38 -30 53 -63 85 -27 102 118 5 43 3 58 -15 87 -18 29 -49 56 -62 55 -2 -1
-17 -7 -35 -15z"/>
<path d="M8187 5436 c-40 -15 -68 -35 -102 -75 -96 -114 -164 -381 -152 -606
10 -204 74 -296 206 -297 110 -1 251 99 251 177 0 47 -20 60 -70 46 -22 -6
-58 -16 -80 -22 -80 -23 -111 4 -113 99 -1 69 13 97 88 177 39 42 72 93 110
170 78 158 88 225 43 287 -38 54 -106 70 -181 44z m101 -151 l19 -24 -39 -79
c-21 -44 -47 -87 -57 -96 -16 -15 -19 -15 -33 1 -15 16 -14 25 9 103 34 119
62 145 101 95z"/>
</g>
</svg>
